<?xml version="1.0" encoding="UTF-8" standalone="no"?>
<!DOCTYPE svg PUBLIC "-//W3C//DTD SVG 1.1//EN" "http://www.w3.org/Graphics/SVG/1.1/DTD/svg11.dtd">
<svg xmlns="http://www.w3.org/2000/svg" xmlns:xlink="http://www.w3.org/1999/xlink" version="1.1" width="595.276pt" height="581.89pt" viewBox="0 0 595.276 581.89">
<g enable-background="new">
<g id="Layer-1" data-name="Vrstva 1">
<clipPath id="cp0">
<path transform="matrix(1,0,0,-1,0,581.89)" d="M 0 581.89 L 595.276 581.89 L 595.276 0 L 0 0 Z "/>
</clipPath>
<g clip-path="url(#cp0)">
<path transform="matrix(1,0,0,-1,450.5625,398.50764)" d="M 0 0 C -4.88 27.751 -13.048 54.398 -20.609 75.427 C -29.699 100.704 -65.37 115.09 -87.424 111.183 C -90.771 110.59 -93.994 110.051 -97.164 109.536 C -113.429 94.566 -135.118 85.404 -158.913 85.404 C -183.825 85.404 -206.429 95.447 -222.915 111.684 C -223.851 111.895 -224.788 112.107 -225.729 112.319 C -244.028 116.447 -277.906 105.84 -285.601 84.797 C -301.76 40.604 -309.519 12.085 -313.091 -3.275 C -314.872 -10.932 -311.503 -18.889 -304.718 -22.859 C -269.699 -43.353 -156.456 -91.942 -9.857 -19.348 C -2.671 -15.789 1.389 -7.898 0 0 " fill="#939598"/>
<path transform="matrix(1,0,0,-1,291.6494,305.6643)" d="M 0 0 C 46.229 0 83.836 37.608 83.836 83.835 C 83.836 130.062 46.229 167.671 0 167.671 C -46.227 167.671 -83.835 130.062 -83.835 83.835 C -83.835 37.608 -46.227 0 0 0 " fill="#939598"/>
</g>
</g>
</g>
</svg>
